<?xml version="1.0" standalone="no"?>
<!DOCTYPE svg PUBLIC "-//W3C//DTD SVG 20010904//EN"
 "http://www.w3.org/TR/2001/REC-SVG-20010904/DTD/svg10.dtd">
<svg version="1.0" xmlns="http://www.w3.org/2000/svg"
 width="128.000000pt" height="128.000000pt" viewBox="0 0 128.000000 128.000000"
 preserveAspectRatio="xMidYMid meet">
<metadata>
Created by potrace 1.14, written by Peter Selinger 2001-2017
</metadata>
<g transform="translate(0.000000,128.000000) scale(0.100000,-0.100000)"
fill="#000000" stroke="none">
<path d="M767 942 l-337 -337 -26 -90 c-28 -98 -31 -125 -14 -135 6 -4 57 6
113 21 l102 29 337 338 c263 263 338 343 338 362 -1 41 -113 150 -154 150 -14
0 -127 -106 -359 -338z m449 173 c-15 -15 -20 -13 -66 33 -46 46 -49 52 -34
66 14 15 20 12 66 -33 47 -46 49 -51 34 -66z m-102 -4 l48 -49 -284 -285 -285
-285 -50 50 -51 51 282 283 c154 155 283 283 286 283 3 1 27 -21 54 -48z
m-597 -652 c-83 -22 -80 -22 -73 5 3 14 11 37 16 51 l10 26 35 -38 c34 -37 34
-38 12 -44z"/>
<path d="M51 1106 c-50 -28 -50 -27 -51 -543 0 -283 4 -492 10 -507 21 -56 26
-56 559 -56 l489 0 31 31 31 31 0 339 c0 299 -2 340 -16 346 -34 13 -37 -11
-37 -342 0 -320 -1 -327 -21 -340 -17 -10 -123 -13 -493 -12 -419 0 -474 2
-487 16 -19 23 -20 945 -1 977 13 20 19 21 340 21 332 0 355 2 342 37 -6 14
-46 16 -339 16 -257 -1 -338 -4 -357 -14z"/>
</g>
</svg>
